<svg width="180" height="40" viewBox="0 0 180 40" fill="none" xmlns="http://www.w3.org/2000/svg">
  <path d="M8 20C8 16.6863 10.6863 14 14 14H20C23.3137 14 26 16.6863 26 20V26C26 29.3137 23.3137 32 20 32H14C10.6863 32 8 29.3137 8 26V20Z" fill="oklch(0.58 0.14 194)" opacity="0.15"/>
  <path d="M12 8C12 5.23858 14.2386 3 17 3H23C25.7614 3 28 5.23858 28 8V14C28 16.7614 25.7614 19 23 19H17C14.2386 19 12 16.7614 12 14V8Z" fill="oklch(0.58 0.14 194)"/>
  <circle cx="17" cy="28" r="5" fill="oklch(0.20 0.01 240)"/>
  <text x="38" y="26" font-family="'Poppins', sans-serif" font-size="20" font-weight="600" fill="oklch(0.20 0.01 240)">PolymerBionics</text>
</svg>
