<svg width="100" height="100" viewBox="0 0 120 120" fill="none" xmlns="http://www.w3.org/2000/svg">
  <path d="M20 100 Q20 95 24 91 Q28 87 33 87 Q38 87 42 91 Q46 95 46 100 Q46 105 42 109 Q38 113 33 113 Q28 113 24 109 Q20 105 20 100 Z" fill="#003E74" stroke="#003E74" stroke-width="3"/>
  
  <path d="M28 100 Q28 97 30.5 94.5 Q33 92 36.5 92 Q40 92 42.5 94.5 Q45 97 45 100 Q45 103 42.5 105.5 Q40 108 36.5 108 Q33 108 30.5 105.5 Q28 103 28 100 Z" fill="none" stroke="#003E74" stroke-width="3"/>
  
  <path d="M33 87 L33 20 M36.5 92 L36.5 25" stroke="#003E74" stroke-width="3" stroke-linecap="round"/>
  
  <path d="M33 20 Q33 15 37 11 Q41 7 46 7 Q51 7 55 11 Q59 15 59 20 Q59 25 55 29 Q51 33 46 33 Q41 33 37 29 Q33 25 33 20 Z" fill="#003E74" stroke="#003E74" stroke-width="3"/>
  
  <path d="M36.5 25 L36.5 20 M59 20 L59 20" stroke="#003E74" stroke-width="3"/>
  
  <path d="M59 20 Q59 15 63 11 Q67 7 72 7 Q77 7 81 11 Q85 15 85 20 Q85 25 81 29 Q77 33 72 33 Q67 33 63 29 Q59 25 59 20 Z" fill="#003E74" stroke="#003E74" stroke-width="3"/>
  
  <path d="M46 65 Q46 60 50 56 Q54 52 59 52 Q64 52 68 56 Q72 60 72 65 Q72 70 68 74 Q64 78 59 78 Q54 78 50 74 Q46 70 46 65 Z" fill="none" stroke="#003E74" stroke-width="3"/>
  
  <path d="M54 65 Q54 62 56.5 59.5 Q59 57 62.5 57 Q66 57 68.5 59.5 Q71 62 71 65 Q71 68 68.5 70.5 Q66 73 62.5 73 Q59 73 56.5 70.5 Q54 68 54 65 Z" fill="none" stroke="#003E74" stroke-width="3"/>
  
  <path d="M59 52 L59 38 M62.5 57 L62.5 43" stroke="#003E74" stroke-width="3" stroke-linecap="round"/>
  
  <path d="M72 65 Q72 60 76 56 Q80 52 85 52 Q90 52 94 56 Q98 60 98 65 Q98 70 94 74 Q90 78 85 78 Q80 78 76 74 Q72 70 72 65 Z" fill="none" stroke="#003E74" stroke-width="3"/>
  
  <path d="M80 65 Q80 62 82.5 59.5 Q85 57 88.5 57 Q92 57 94.5 59.5 Q97 62 97 65 Q97 68 94.5 70.5 Q92 73 88.5 73 Q85 73 82.5 70.5 Q80 68 80 65 Z" fill="none" stroke="#003E74" stroke-width="3"/>
  
  <path d="M85 52 L85 38 M88.5 57 L88.5 43" stroke="#003E74" stroke-width="3" stroke-linecap="round"/>
  
  <path d="M20 100 Q20 80 30 65 Q40 50 55 45" stroke="#003E74" stroke-width="3" stroke-linecap="round" fill="none"/>
  <path d="M24 100 Q24 82 33 69 Q42 56 55 51" stroke="#003E74" stroke-width="3" stroke-linecap="round" fill="none"/>
</svg>
