<svg width="32" height="32" viewBox="0 0 32 32" fill="none" xmlns="http://www.w3.org/2000/svg">
  <rect width="32" height="32" rx="6" fill="#48466D"/>
  <path d="M8 16C8 13.7909 9.79086 12 12 12H16C18.2091 12 20 13.7909 20 16V20C20 22.2091 18.2091 24 16 24H12C9.79086 24 8 22.2091 8 20V16Z" fill="white" opacity="0.3"/>
  <path d="M11 6C11 4.34315 12.3431 3 14 3H18C19.6569 3 21 4.34315 21 6V10C21 11.6569 19.6569 13 18 13H14C12.3431 13 11 11.6569 11 10V6Z" fill="white"/>
  <circle cx="14" cy="22" r="4" fill="white" opacity="0.7"/>
</svg>
