<svg width="32" height="32" viewBox="0 0 1200 1200" fill="none" xmlns="http://www.w3.org/2000/svg">
  <circle cx="300" cy="950" r="50" fill="#003D6D"/>
  <circle cx="300" cy="800" r="50" fill="#003D6D"/>
  <path d="M 300 950 Q 200 800 300 650" stroke="#003D6D" stroke-width="40" fill="none" stroke-linecap="round"/>
  <path d="M 300 800 Q 150 700 200 500" stroke="#003D6D" stroke-width="40" fill="none" stroke-linecap="round"/>
  <circle cx="200" cy="500" r="50" fill="#003D6D"/>
  <path d="M 200 500 Q 300 350 400 200" stroke="#003D6D" stroke-width="40" fill="none" stroke-linecap="round"/>
  <circle cx="400" cy="200" r="50" fill="#003D6D"/>
  <circle cx="500" cy="200" r="50" fill="#003D6D"/>
  <path d="M 500 200 Q 600 350 700 500" stroke="#003D6D" stroke-width="40" fill="none" stroke-linecap="round"/>
  <circle cx="700" cy="500" r="50" fill="#003D6D"/>
  <circle cx="800" cy="500" r="50" fill="#003D6D"/>
  <path d="M 800 500 Q 850 650 750 800" stroke="#003D6D" stroke-width="40" fill="none" stroke-linecap="round"/>
  <path d="M 750 800 Q 650 900 750 950" stroke="#003D6D" stroke-width="40" fill="none" stroke-linecap="round"/>
  <circle cx="750" cy="950" r="50" fill="#003D6D"/>
  <path d="M 300 650 Q 400 550 500 650" stroke="#003D6D" stroke-width="40" fill="none" stroke-linecap="round"/>
  <path d="M 500 650 Q 600 550 700 650" stroke="#003D6D" stroke-width="40" fill="none" stroke-linecap="round"/>
</svg>
